<svg xmlns="http://www.w3.org/2000/svg" viewBox="0 0 64 64" role="img" aria-label="Slap Your Boss cartoon character">
  <rect width="64" height="64" rx="14" fill="#ffd23f"/>
  <path fill="#111827" d="M10 57c2-15 10-23 22-23s20 8 22 23H10Z"/>
  <path fill="#f8fafc" d="M24 37h16l-8 15-8-15Z"/>
  <path fill="#d52924" d="M32 40l5 17H27l5-17Z"/>
  <path fill="#4b2a18" d="M18 25c0-12 8-20 18-20 8 0 14 5 14 13 4 3 4 11-1 15-4-3-8-6-19-6-6 0-9-1-12-2Z"/>
  <ellipse cx="32" cy="28" rx="19" ry="20" fill="#f2c18d"/>
  <path fill="#4b2a18" d="M15 24c4-14 14-19 25-16 6 2 10 7 10 14-9-2-18-4-35 2Z"/>
  <circle cx="24" cy="29" r="3" fill="#111827"/>
  <circle cx="40" cy="29" r="3" fill="#111827"/>
  <path fill="none" stroke="#111827" stroke-linecap="round" stroke-width="3" d="M25 42c4 4 10 4 14 0"/>
  <path fill="#ffffff" d="M19 18c5-7 14-9 22-5-8 0-15 2-22 5Z" opacity=".34"/>
</svg>
